<?xml version="1.0" encoding="utf-8"?>
<!-- Generator: Adobe Illustrator 16.0.0, SVG Export Plug-In . SVG Version: 6.00 Build 0)  -->
<!DOCTYPE svg PUBLIC "-//W3C//DTD SVG 1.1//EN" "http://www.w3.org/Graphics/SVG/1.1/DTD/svg11.dtd">
<svg version="1.1" id="Layer_1" xmlns="http://www.w3.org/2000/svg" xmlns:xlink="http://www.w3.org/1999/xlink" x="0px" y="0px"
	 width="112.5px" height="82.75px" viewBox="0 0 112.5 82.75" enable-background="new 0 0 112.5 82.75" xml:space="preserve">
<g>
	<path d="M16,11.348v22.399c0,1.135-0.267,2.3-0.8,3.5c-0.535,1.2-1.334,2.268-2.4,3.2c1,0.935,1.783,2,2.35,3.2
		c0.566,1.2,0.85,2.367,0.85,3.5v23.5h5.5v8.899H8.3c-0.467,0-0.967-0.217-1.5-0.649C6.266,78.463,6,77.68,6,76.547v-26
		c0-1.6-0.435-2.982-1.3-4.149c-0.867-1.166-1.967-1.883-3.3-2.15v-7.8c0.666,0,1.283-0.2,1.85-0.6c0.565-0.4,1.05-0.916,1.45-1.551
		c0.4-0.633,0.715-1.3,0.95-2C5.883,31.598,6,30.947,6,30.348v-24.9c0-1.266,0.3-2.083,0.9-2.45c0.6-0.365,1.066-0.55,1.4-0.55h13.2
		v8.9H16z"/>
	<path d="M34.3,76.447v-71h47.3v9.9H45.5v21.199h30.199v9.301H45.5v30.6H34.3z"/>
	<path d="M89.1,11.348v-8.9h13.1c0.333,0,0.8,0.185,1.4,0.55c0.6,0.367,0.899,1.185,0.899,2.45v24.9c0,0.6,0.101,1.25,0.3,1.949
		c0.2,0.7,0.5,1.367,0.9,2c0.4,0.635,0.883,1.15,1.45,1.551c0.565,0.399,1.216,0.6,1.95,0.6v7.8
		c-1.335,0.268-2.435,0.984-3.301,2.15c-0.867,1.167-1.3,2.55-1.3,4.149v26c0,1.133-0.267,1.916-0.8,2.351
		c-0.534,0.433-1.034,0.649-1.5,0.649H89.1v-8.899h5.5v-23.5c0-1.133,0.25-2.3,0.75-3.5s1.282-2.266,2.35-3.2
		c-1.067-0.933-1.85-2-2.35-3.2s-0.75-2.365-0.75-3.5V11.348H89.1z"/>
</g>
</svg>
